<svg xmlns="http://www.w3.org/2000/svg" viewBox="0 0 128 128">
  <defs>
    <linearGradient id="g" x1="0" x2="1" y1="0" y2="1">
      <stop offset="0%" stop-color="#4f46e5"/>
      <stop offset="50%" stop-color="#7c3aed"/>
      <stop offset="100%" stop-color="#db2777"/>
    </linearGradient>
  </defs>
  <rect width="128" height="128" rx="24" fill="url(#g)"/>
  <!-- Quill pen nib over a book to hint at IELTS writing -->
  <g fill="white" opacity="0.95" transform="translate(20,22)">
    <!-- Book -->
    <rect x="0" y="42" width="88" height="34" rx="6" ry="6" fill="white" opacity="0.9"/>
    <rect x="6" y="46" width="76" height="2" fill="#e5e7eb"/>
    <rect x="6" y="52" width="76" height="2" fill="#e5e7eb"/>
    <rect x="6" y="58" width="52" height="2" fill="#e5e7eb"/>
    <!-- Quill -->
    <path d="M62 0c-10 6-20 18-24 30-2 6-2 12 0 16l10-6 26-26L62 0z" />
    <!-- Nib -->
    <path d="M54 38l10-10 8 8-10 10c-2 2-6 2-8 0l-2-2c-2-2-2-6 0-8z" />
  </g>
  <!-- IELTS letters -->
  <g fill="white" font-family="Inter, Arial, sans-serif" font-weight="700" font-size="26" text-anchor="middle">
    <text x="64" y="118">IELTS</text>
  </g>
</svg>
